# xmcd CD database file
#
# Track frame offsets:
#	150
#	32545
#	56222
#	84463
#	110201
#	139145
#	160677
#	186453
#	216237
#	244100
#	258606
#
# Disc length: 3928 seconds
#
# Revision: 0
# Processed by: cddbd v1.5.2PL0 Copyright (c) Steve Scherf et al.
# Submitted via: CDex 1.81
#
DISCID=a40f560b
DTITLE=Fay Claasen - Red, Hot and Blue
DYEAR=2008
DGENRE=Jazz
TTITLE0=I Get A Kick Out Of You
TTITLE1=Easy To Love
TTITLE2=Love For Sale
TTITLE3=Ridin' High
TTITLE4=Dreamdancing
TTITLE5=Anything Goes
TTITLE6=You'd Be So Nice To Come Home To
TTITLE7=I Concentrate On You
TTITLE8=All Through The Night
TTITLE9=Too Darn Hot
TTITLE10=So In Love
EXTD=YEAR: 2008
EXTT0=
EXTT1=
EXTT2=
EXTT3=
EXTT4=
EXTT5=
EXTT6=
EXTT7=
EXTT8=
EXTT9=
EXTT10=
PLAYORDER=
